<svg width="29" height="27" viewBox="0 0 29 27" fill="none" xmlns="http://www.w3.org/2000/svg">
<path d="M14.4652 16.0241C15.892 16.0241 17.0486 14.8675 17.0486 13.4408C17.0486 12.0141 15.892 10.8575 14.4652 10.8575C13.0385 10.8575 11.8819 12.0141 11.8819 13.4408C11.8819 14.8675 13.0385 16.0241 14.4652 16.0241Z" fill="#00D8FF"/>
<path fill-rule="evenodd" clip-rule="evenodd" d="M14.4657 8.18842C17.9342 8.18842 21.1563 8.68611 23.5857 9.52249C26.5129 10.5302 28.3126 12.0577 28.3126 13.4409C28.3126 14.8822 26.4053 16.5049 23.2619 17.5464C20.8854 18.3338 17.7582 18.7448 14.4657 18.7448C11.09 18.7448 7.89344 18.359 5.49019 17.5378C2.44964 16.4985 0.618286 14.8547 0.618286 13.4409C0.618286 12.0689 2.33666 10.5533 5.22267 9.54705C7.6612 8.69687 10.9629 8.18842 14.4652 8.18842H14.4657Z" stroke="#00D8FF" stroke-width="1.23587"/>
<path fill-rule="evenodd" clip-rule="evenodd" d="M9.89368 10.8297C11.6265 7.82514 13.6672 5.28255 15.6055 3.59579C17.9407 1.5635 20.1631 0.767603 21.3612 1.45851C22.6099 2.17856 23.0627 4.64159 22.3946 7.88483C21.8899 10.3369 20.6832 13.2512 19.0383 16.1034C17.3519 19.0276 15.4209 21.604 13.509 23.2751C11.0898 25.3899 8.75092 26.1552 7.52612 25.4489C6.33762 24.764 5.88313 22.5178 6.45328 19.515C6.93501 16.9778 8.14395 13.8637 9.89312 10.8297L9.89368 10.8297Z" stroke="#00D8FF" stroke-width="1.23587"/>
<path fill-rule="evenodd" clip-rule="evenodd" d="M9.89688 16.1109C8.15919 13.1097 6.97611 10.0713 6.48227 7.54972C5.88782 4.51154 6.30812 2.18862 7.50516 1.4957C8.75257 0.773545 11.1126 1.61126 13.5887 3.80987C15.4609 5.47212 17.3833 7.97254 19.0329 10.822C20.7242 13.7435 21.9918 16.7032 22.4849 19.1941C23.1088 22.3463 22.6038 24.7547 21.3802 25.4631C20.1929 26.1504 18.0202 25.4227 15.7034 23.4291C13.7459 21.7447 11.6517 19.142 9.89688 16.1109V16.1109Z" stroke="#00D8FF" stroke-width="1.23587"/>
</svg>
